# File created by Blade
# Date/Time:  Thu Jan 22 18:25:10 2015
# Frame Rate: 120.000 fps
#------------------------------------------------------
:FULLY-SPECIFIED
:DEGREES
3331
root -2.844044 33.118174 -0.423795 8.962664 -2.113139 2.806639
RightUpLeg -2.771389 -5.113375 -2.087590
RightLeg 0.239896 -0.000000 -0.000000
RightFoot -12.087092 -3.403942 3.590962
RightToeBase 6.046654 -0.000000 -0.000000
LeftUpLeg -2.542323 4.471501 0.358518
LeftLeg 0.955505 -0.000000 -0.000000
LeftFoot -10.640956 1.565260 -9.592815
LeftToeBase 8.753799 -0.000000 -0.000000
Spine -9.501178 -2.923440 -1.325492
RightShoulder -20.515443 -27.958870 -10.098014
RightArm 29.256476 -12.669740 47.242943
RightForeArm -3.875648 -0.000000 75.291624
RightHand 3.343963 -0.000000 2.428034
RightHandThumb1 -24.326973 -0.000000 -32.862282
LeftShoulder -26.470096 14.061100 17.111900
LeftArm 15.355209 11.180128 -48.373772
LeftForeArm 15.009988 -0.000000 96.227532
LeftHand -0.465709 -0.000000 -20.231263
LeftHandThumb1 -26.253704 0.000000 33.147579
Head -10.395684 3.543202 -1.141353
3332
root -2.842484 33.118225 -0.408396 8.956375 -2.149282 2.803056
RightUpLeg -2.745705 -5.090967 -2.094158
RightLeg 0.240299 -0.000000 -0.000000
RightFoot -12.093822 -3.387546 3.587569
RightToeBase 6.037944 -0.000000 -0.000000
LeftUpLeg -2.510069 4.483552 0.355512
LeftLeg 0.971538 -0.000000 -0.000000
LeftFoot -10.674882 1.588908 -9.577897
LeftToeBase 8.787951 -0.000000 -0.000000
Spine -9.381040 -2.843876 -1.324787
RightShoulder -20.907993 -27.934299 -10.309109
RightArm 28.206195 -11.290966 47.358452
RightForeArm -3.681248 -0.000000 75.015790
RightHand 3.469831 -0.000000 2.804851
RightHandThumb1 -24.326973 -0.000000 -32.862282
LeftShoulder -26.763879 14.220308 17.187554
LeftArm 14.483380 10.301631 -48.056516
LeftForeArm 15.248958 -0.000000 95.175245
LeftHand -0.606240 -0.000000 -20.416919
LeftHandThumb1 -26.253704 0.000000 33.147579
Head -10.531025 3.503407 -1.187427
3333
root -2.841514 33.119566 -0.393463 8.928609 -2.159323 2.789157
RightUpLeg -2.693055 -5.096032 -2.087391
RightLeg 0.238770 -0.000000 -0.000000
RightFoot -12.082146 -3.373212 3.604277
RightToeBase 6.038336 -0.000000 -0.000000
LeftUpLeg -2.460993 4.487393 0.368350
LeftLeg 0.984965 -0.000000 -0.000000
LeftFoot -10.688845 1.600551 -9.585431
LeftToeBase 8.752282 -0.000000 -0.000000
Spine -9.271838 -2.816353 -1.321585
RightShoulder -21.212749 -27.975099 -10.493719
RightArm 27.276339 -9.845543 47.408453
RightForeArm -3.474109 0.000000 74.683654
RightHand 3.357202 -0.000000 2.076872
RightHandThumb1 -24.326973 -0.000000 -32.862282
LeftShoulder -27.032080 14.479137 17.290360
LeftArm 13.772490 9.350848 -47.878330
LeftForeArm 15.582898 -0.000000 93.979942
LeftHand -0.759004 -0.000000 -20.488463
LeftHandThumb1 -26.253704 0.000000 33.147579
Head -10.554617 3.490714 -1.178100
3334
root -2.840818 33.120125 -0.379952 8.923039 -2.158350 2.791647
RightUpLeg -2.668505 -5.103306 -2.092180
RightLeg 0.248098 -0.000000 -0.000000
RightFoot -12.090995 -3.376681 3.604976
RightToeBase 5.996808 -0.000000 -0.000000
LeftUpLeg -2.443610 4.480530 0.365237
LeftLeg 1.010246 -0.000000 -0.000000
LeftFoot -10.707296 1.603651 -9.586658
LeftToeBase 8.787636 -0.000000 -0.000000
Spine -9.191282 -2.791182 -1.327469
RightShoulder -21.509855 -27.996998 -10.704073
RightArm 26.376892 -8.393132 47.484138
RightForeArm -3.435082 -0.000000 74.333005
RightHand 3.326105 -0.000000 1.933596
RightHandThumb1 -24.326973 -0.000000 -32.862282
LeftShoulder -27.262872 14.669190 17.449675
LeftArm 13.059183 8.386102 -47.769618
LeftForeArm 16.152896 0.000000 92.701567
LeftHand -0.476594 -0.000000 -20.740522
LeftHandThumb1 -26.253704 0.000000 33.147579
Head -10.542987 3.498525 -1.188347
3335
root -2.841608 33.120357 -0.368970 8.904876 -2.177524 2.794239
RightUpLeg -2.643663 -5.070580 -2.099663
RightLeg 0.267251 -0.000000 -0.000000
RightFoot -12.101780 -3.391888 3.621201
RightToeBase 5.965868 -0.000000 -0.000000
LeftUpLeg -2.412110 4.506314 0.364772
LeftLeg 1.024212 -0.000000 -0.000000
LeftFoot -10.709222 1.589833 -9.583635
LeftToeBase 8.728370 -0.000000 -0.000000
Spine -9.080797 -2.727374 -1.345265
RightShoulder -21.852688 -28.018070 -10.890569
RightArm 25.589289 -6.943464 47.546743
RightForeArm -3.493373 -0.000000 73.926923
RightHand 3.297956 -0.000000 1.902446
RightHandThumb1 -24.326973 -0.000000 -32.862282
LeftShoulder -27.418775 14.718698 17.650251
LeftArm 12.287333 7.504604 -47.628822
LeftForeArm 16.694435 -0.000000 91.448936
LeftHand -0.644675 -0.000000 -20.604082
LeftHandThumb1 -26.253704 0.000000 33.147579
Head -10.588020 3.446140 -1.220884
3336
root -2.842544 33.121649 -0.358091 8.917947 -2.165985 2.779109
RightUpLeg -2.639988 -5.067254 -2.083693
RightLeg 0.277315 -0.000000 -0.000000
RightFoot -12.099130 -3.399140 3.620391
RightToeBase 6.022737 -0.000000 -0.000000
LeftUpLeg -2.414725 4.502586 0.380207
LeftLeg 1.044059 -0.000000 -0.000000
LeftFoot -10.723136 1.587974 -9.569222
LeftToeBase 8.724795 -0.000000 -0.000000
Spine -9.023104 -2.711774 -1.329859
RightShoulder -22.170734 -27.998991 -11.077091
RightArm 24.857461 -5.518525 47.554108
RightForeArm -3.797212 -0.000000 73.465142
RightHand 3.320556 -0.000000 1.684537
RightHandThumb1 -24.326973 -0.000000 -32.862282
LeftShoulder -27.619256 14.866376 17.807225
LeftArm 11.635265 6.633125 -47.481379
LeftForeArm 17.291348 0.000000 90.259417
LeftHand -0.566103 -0.000000 -20.388765
LeftHandThumb1 -26.253704 0.000000 33.147579
Head -10.562571 3.494059 -1.272965
3337
root -2.842457 33.122520 -0.344287 8.899214 -2.141755 2.773407
RightUpLeg -2.589949 -5.073253 -2.081928
RightLeg 0.273177 -0.000000 -0.000000
RightFoot -12.102325 -3.404040 3.639713
RightToeBase 6.012557 -0.000000 -0.000000
LeftUpLeg -2.382463 4.504416 0.390957
LeftLeg 1.058540 -0.000000 -0.000000
LeftFoot -10.734121 1.556439 -9.583131
LeftToeBase 8.761138 -0.000000 -0.000000
Spine -8.942538 -2.711035 -1.316274
RightShoulder -22.466643 -27.956772 -11.285199
RightArm 24.199924 -4.167011 47.509624
RightForeArm -3.833114 -0.000000 72.922081
RightHand 3.389296 -0.000000 1.615249
RightHandThumb1 -24.326973 -0.000000 -32.862282
LeftShoulder -27.757839 14.947387 17.993931
LeftArm 10.925190 5.723065 -47.398547
LeftForeArm 17.927174 -0.000000 89.119142
LeftHand -0.455814 0.000000 -20.520896
LeftHandThumb1 -26.253704 0.000000 33.147579
Head -10.535360 3.480410 -1.299441
3338
root -2.842381 33.122888 -0.332084 8.903980 -2.122655 2.771976
RightUpLeg -2.574443 -5.081563 -2.080854
RightLeg 0.283332 -0.000000 -0.000000
RightFoot -12.113787 -3.417989 3.638372
RightToeBase 5.998074 -0.000000 -0.000000
LeftUpLeg -2.369092 4.499932 0.391413
LeftLeg 1.057999 -0.000000 -0.000000
LeftFoot -10.737874 1.565392 -9.569015
LeftToeBase 8.727696 -0.000000 -0.000000
Spine -8.885316 -2.689302 -1.311075
RightShoulder -22.784032 -27.910806 -11.477764
RightArm 23.608406 -2.820357 47.444618
RightForeArm -3.959622 -0.000000 72.323969
RightHand 3.319968 -0.000000 1.711687
RightHandThumb1 -24.326973 -0.000000 -32.862282
LeftShoulder -27.952215 15.036113 18.162107
LeftArm 10.422280 4.883488 -47.263994
LeftForeArm 18.575766 0.000000 87.880355
LeftHand -0.475145 -0.000000 -20.210655
LeftHandThumb1 -26.253704 0.000000 33.147579
Head -10.496851 3.445567 -1.341302
3339
root -2.840547 33.123039 -0.321101 8.883716 -2.074086 2.765316
RightUpLeg -2.527631 -5.115483 -2.076976
RightLeg 0.287477 -0.000000 -0.000000
RightFoot -12.117110 -3.411377 3.661356
RightToeBase 5.984822 -0.000000 -0.000000
LeftUpLeg -2.341641 4.439649 0.401078
LeftLeg 1.071676 -0.000000 -0.000000
LeftFoot -10.744435 1.570612 -9.647245
LeftToeBase 8.681706 -0.000000 -0.000000
Spine -8.790747 -2.765347 -1.281555
RightShoulder -22.918502 -27.674834 -11.781835
RightArm 22.891979 -1.565525 47.358723
RightForeArm -4.267639 -0.000000 71.712845
RightHand 3.262506 -0.000000 1.618375
RightHandThumb1 -24.326973 -0.000000 -32.862282
LeftShoulder -28.147609 15.040855 18.355669
LeftArm 9.824524 4.108186 -47.109802
LeftForeArm 19.200818 -0.000000 86.705530
LeftHand -0.543929 -0.000000 -20.121604
LeftHandThumb1 -26.253704 0.000000 33.147579
Head -10.482395 3.496143 -1.372228
3340
root -2.839513 33.123423 -0.311320 8.886095 -2.038603 2.758622
RightUpLeg -2.518782 -5.145562 -2.070468
RightLeg 0.314103 -0.000000 -0.000000
RightFoot -12.136875 -3.407690 3.667268
RightToeBase 5.976280 -0.000000 -0.000000
LeftUpLeg -2.335532 4.392054 0.411932
LeftLeg 1.081200 -0.000000 -0.000000
LeftFoot -10.771144 1.598367 -9.555292
LeftToeBase 8.738997 -0.000000 -0.000000
Spine -8.735014 -2.774733 -1.273425
RightShoulder -23.187064 -27.576792 -11.966366
RightArm 22.411391 -0.299104 47.192795
RightForeArm -4.516908 -0.000000 70.986540
RightHand 3.196027 -0.000000 1.392721
RightHandThumb1 -24.326973 -0.000000 -32.862282
LeftShoulder -28.296972 15.107550 18.543857
LeftArm 9.378599 3.224123 -47.014099
LeftForeArm 19.921766 -0.000000 85.454810
LeftHand -0.633417 -0.000000 -20.053131
LeftHandThumb1 -26.253704 0.000000 33.147579
Head -10.436861 3.525247 -1.372093
3341
root -2.839268 33.123047 -0.299762 8.865736 -2.050805 2.755407
RightUpLeg -2.490466 -5.104021 -2.076186
RightLeg 0.338027 -0.000000 -0.000000
RightFoot -12.168065 -3.430577 3.698792
RightToeBase 6.011419 -0.000000 -0.000000
LeftUpLeg -2.284952 4.408621 0.411218
LeftLeg 1.066576 -0.000000 -0.000000
LeftFoot -10.783504 1.618311 -9.527528
LeftToeBase 8.713460 -0.000000 -0.000000
Spine -8.675367 -2.745701 -1.273189
RightShoulder -23.312834 -27.395394 -12.265082
RightArm 21.824535 0.908322 47.104170
RightForeArm -4.925786 -0.000000 70.235355
RightHand 3.275693 -0.000000 1.237195
RightHandThumb1 -24.326973 -0.000000 -32.862282
LeftShoulder -28.452400 15.269331 18.691641
LeftArm 9.085513 2.310695 -46.902446
LeftForeArm 20.398360 -0.000000 84.143784
LeftHand -0.508564 -0.000000 -20.217001
LeftHandThumb1 -26.253704 0.000000 33.147579
Head -10.345708 3.552915 -1.392347
3342
root -2.840459 33.123366 -0.286551 8.821661 -2.066370 2.751435
RightUpLeg -2.435245 -5.090094 -2.079488
RightLeg 0.357225 -0.000000 -0.000000
RightFoot -12.171851 -3.421609 3.703460
RightToeBase 5.966566 -0.000000 -0.000000
LeftUpLeg -2.201713 4.421226 0.421359
LeftLeg 1.036418 -0.000000 -0.000000
LeftFoot -10.779951 1.609703 -9.562561
LeftToeBase 8.757683 -0.000000 -0.000000
Spine -8.585070 -2.748546 -1.282752
RightShoulder -23.470082 -27.239377 -12.489819
RightArm 21.399374 2.072938 46.895062
RightForeArm -5.223814 -0.000000 69.402814
RightHand 3.362353 -0.000000 1.094610
RightHandThumb1 -24.326973 -0.000000 -32.862282
LeftShoulder -28.621546 15.331506 18.865968
LeftArm 8.737284 1.470781 -46.765498
LeftForeArm 20.914203 -0.000000 82.871544
LeftHand -0.802283 -0.000000 -20.099910
LeftHandThumb1 -26.253704 0.000000 33.147579
Head -10.288005 3.602498 -1.398426
